# xmcd
#
# Track frame offsets:
#	150
#	11755
#	31373
#	50949
#	80420
#	96684
#	110644
#	128392
#	152305
#	173018
#	190812
#	202099
#	219883
#	233236
#	250866
#	281431
#	302446
#	321723
#	338331
#	354882
#
# Disc length: 4755 seconds
# Revision: 0
# Processed by: cddbd v1.5.2PL0 Copyright (c) Steve Scherf et al.
# Submitted via: dBpowerAMP V12.0
#
DISCID=14129114
DTITLE=Various Artist - Topcat Records 20th Anniversary Extravaganza
DYEAR=2012
DGENRE=Blues
TTITLE0=Jesse Thomas - Blue Goose Blues
TTITLE1=Johnny Nicholas - Kind Hearted Woman
TTITLE2=Edwin Holt - Down to the Bone
TTITLE3=Muddy Waters - Long Distance Call
TTITLE4=George "Harmonica" Smith - Mississippi River Blues
TTITLE5=Big Mama Thornton - Hound Dog
TTITLE6=Johnny Nicholas - My Babe
TTITLE7=Jimmie Vaughan - Texas Flood
TTITLE8=Curly "Barefoot" Miller - The Curly Stomp
TTITLE9=Bobby Chitwood - "C" Jam Blues
TTITLE10=Texas Topcats - Jump My Baby
TTITLE11=Tu-Tones - Pawnshop Bound
TTITLE12=Josh Alan Band - Rollin' and Tumblin'
TTITLE13=Mike "Hollywood Fats" Mann - Tear It Up
TTITLE14=Cricket Taylor - Guitar Man
TTITLE15=Alex Rossi - Rock Me
TTITLE16=Robert Ealey - I'm Coming Home
TTITLE17=Curly "Barefoot" Miller - Butter Beans
TTITLE18=Johnny Nicholas - John the Revelator
TTITLE19=Hash Brown - Boogie
EXTD=
EXTT0=
EXTT1=
EXTT2=
EXTT3=
EXTT4=
EXTT5=
EXTT6=
EXTT7=
EXTT8=
EXTT9=
EXTT10=
EXTT11=
EXTT12=
EXTT13=
EXTT14=
EXTT15=
EXTT16=
EXTT17=
EXTT18=
EXTT19=
PLAYORDER=
